<?xml version="1.0" encoding="utf-8"?>
<!-- Generator: Adobe Illustrator 18.1.1, SVG Export Plug-In . SVG Version: 6.00 Build 0)  -->
<svg version="1.1" id="Capa_1" xmlns="http://www.w3.org/2000/svg" xmlns:xlink="http://www.w3.org/1999/xlink" x="0px" y="0px"
	 viewBox="0 -3 566 566" enable-background="new 0 -3 566 566" xml:space="preserve">
<g>
	<rect x="15.7" y="115" fill="#FFFFFF" width="538.7" height="329.7"/>
	<path fill="#C1D2E5" d="M11.3,439.8c0,0,160.1-143,218-122.2c57.9,20.8,105.6,20.8,126.1,0c20.4-20.8,98.8-93.6,132.9-93.6
		s57.2,0,57.2,0v215.8l-530.8,2.6v-2.6H11.3z"/>
	<path fill="#838383" d="M545.5,101.5h-523H0v22.4v314v22.4l0,0h567.8l0,0v-22.4v-314v-22.4H545.5z M545.5,437.9h-523v-314h523
		V437.9z"/>
	<path fill="#EDC87E" d="M89.8,256.3L89.8,256.3c-24.7,0-44.9-20.2-44.9-42.6l0,0c0-24.7,20.2-42.6,42.6-42.6l0,0
		c24.7,0,42.6,20.2,42.6,42.6l0,0C132.4,238.3,112.2,256.3,89.8,256.3z"/>
</g>
<rect x="0.7" y="529.6" width="565" height="33.4"/>
<rect x="0.7" y="-1.5" width="565" height="33.4"/>
</svg>
