<?xml version="1.0" encoding="iso-8859-1"?>
<!-- Generator: Adobe Illustrator 16.0.0, SVG Export Plug-In . SVG Version: 6.00 Build 0)  -->
<!DOCTYPE svg PUBLIC "-//W3C//DTD SVG 1.1//EN" "http://www.w3.org/Graphics/SVG/1.1/DTD/svg11.dtd">
<svg version="1.1" id="Capa_1" xmlns="http://www.w3.org/2000/svg" xmlns:xlink="http://www.w3.org/1999/xlink" x="0px" y="0px"
	 width="93.425px" height="93.426px" viewBox="0 0 93.425 93.426" style="enable-background:new 0 0 93.425 93.426;"
	 xml:space="preserve">
<g>
	<path d="M89.233,41.746H58.128c-1.266-0.676-2.576-1.351-3.986-2.026c-6.424-3.065-10.495-5.19-12.214-6.372
		c-1.721-1.18-2.975-2.402-3.762-3.667c-0.788-1.264-1.181-2.746-1.181-4.445c0-2.736,0.973-4.952,2.921-6.652
		c1.948-1.697,4.746-2.548,8.395-2.548c3.065,0,6.184,0.396,9.354,1.182c3.17,0.788,7.18,2.175,12.028,4.165l6.215-14.981
		c-4.683-2.029-9.167-3.604-13.458-4.723C58.15,0.559,53.645,0,48.921,0c-9.616,0-17.147,2.3-22.598,6.9
		c-5.45,4.6-8.175,10.92-8.175,18.958c0,4.27,0.83,7.999,2.486,11.189c0.871,1.678,1.906,3.239,3.087,4.699H4.193v9.935h32.975
		c0.838,0.425,1.701,0.851,2.615,1.28c5.926,2.816,9.854,4.87,11.779,6.152c1.926,1.285,3.387,2.621,4.382,4.011
		c0.995,1.388,1.491,2.973,1.491,4.754c0,3.19-1.131,5.595-3.387,7.211c-2.26,1.616-5.504,2.423-9.728,2.423
		c-3.524,0-7.409-0.559-11.656-1.678c-4.25-1.119-9.438-3.046-15.572-5.782v17.903c7.46,3.646,16.037,5.471,25.734,5.471
		c10.525,0,18.742-2.363,24.648-7.086c5.903-4.725,8.854-11.189,8.854-19.395c0-5.926-1.574-10.931-4.724-15.012
		c-0.065-0.085-0.149-0.169-0.218-0.254h17.845V41.746z"/>
</g>
<g>
</g>
<g>
</g>
<g>
</g>
<g>
</g>
<g>
</g>
<g>
</g>
<g>
</g>
<g>
</g>
<g>
</g>
<g>
</g>
<g>
</g>
<g>
</g>
<g>
</g>
<g>
</g>
<g>
</g>
</svg>
