<?xml version="1.0" encoding="utf-8"?>
<!-- Generator: Adobe Illustrator 18.1.1, SVG Export Plug-In . SVG Version: 6.00 Build 0)  -->
<svg version="1.1" id="Capa_1" xmlns="http://www.w3.org/2000/svg" xmlns:xlink="http://www.w3.org/1999/xlink" x="0px" y="0px"
	 viewBox="0 0 30 30" enable-background="new 0 0 30 30" xml:space="preserve">
<path fill="#838383" d="M28.7,0H1.3C0.6,0,0,0.6,0,1.3v27.4C0,29.4,0.6,30,1.3,30h27.4c0.7,0,1.3-0.6,1.3-1.3V1.3
	C30,0.6,29.4,0,28.7,0z M1.3,1.3h27.4v0v3.9H1.3V1.3z M28.7,6.5V13h-7.8V6.5H28.7z M19.6,6.5V13h-9.1V6.5H19.6z M1.3,6.5h7.8V13H1.3
	V6.5z M9.1,28.7H1.3v-6.5h7.8V28.7z M19.6,28.7h-9.1v-6.5h9.1V28.7z M28.7,28.7h-7.8v-6.5h7.8V28.7z M28.7,20.9h-7.8h-1.3h-9.1H9.1
	H1.3v-6.5h7.8h1.3h9.1h1.3h7.8V20.9z"/>
<path fill="#0071BC" d="M0,13v1.2v0.1v6.5v0.7v0.7h30v-0.7v-0.7v-6.5v-0.1V13H0z M28.7,20.8H1.3v-6.5h27.3V20.8z"/>
<rect x="9.1" y="13" fill="#0071BC" width="1.3" height="9.1"/>
<rect x="19.5" y="13" fill="#0071BC" width="1.3" height="9.1"/>
</svg>
