<?xml version="1.0" encoding="utf-8"?>
<!-- Generator: Adobe Illustrator 18.1.1, SVG Export Plug-In . SVG Version: 6.00 Build 0)  -->
<svg version="1.1" id="Capa_1" xmlns="http://www.w3.org/2000/svg" xmlns:xlink="http://www.w3.org/1999/xlink" x="0px" y="0px"
	 viewBox="-703 285 512 512" enable-background="new -703 285 512 512" xml:space="preserve">
<rect x="-356" y="384" fill="#81C784" width="151" height="400"/>
<g>
	<g>
		<g>
			<path fill="#838383" d="M-213.3,285h-467.5c-12.3,0-22.3,10-22.3,22.3v467.5c0,12.3,10,22.3,22.3,22.3h467.5
				c12.3,0,22.3-10,22.3-22.3V307.3C-191,295-201,285-213.3,285z M-524.9,641.2V529.9h155.8v111.3H-524.9z M-369.1,663.4v111.3
				h-155.8V663.4H-369.1z M-369.1,396.3v111.3h-155.8V396.3H-369.1z M-213.3,396.3v111.3h-133.6V396.3H-213.3z M-547.2,507.6h-133.6
				V396.3h133.6V507.6z M-680.7,529.9h133.6v111.3h-133.6V529.9z M-346.8,529.9h133.6v111.3h-133.6V529.9z M-213.3,307.3V374h-467.5
				v-66.8H-213.3z M-680.7,663.4h133.6v111.3h-133.6V663.4z M-346.8,774.7V663.4h133.6v111.3H-346.8z"/>
		</g>
	</g>
</g>
</svg>
