<?xml version="1.0" encoding="utf-8"?>
<!-- Generator: Adobe Illustrator 18.1.1, SVG Export Plug-In . SVG Version: 6.00 Build 0)  -->
<svg version="1.1" id="Layer_1" xmlns="http://www.w3.org/2000/svg" xmlns:xlink="http://www.w3.org/1999/xlink" x="0px" y="0px"
	 viewBox="-719 301 480 480" enable-background="new -719 301 480 480" xml:space="preserve">
<circle fill="#4A7DB1" cx="-672.6" cy="387.1" r="40.4"/>
<circle fill="#4A7DB1" cx="-672.6" cy="540.8" r="40.4"/>
<circle fill="#4A7DB1" cx="-672.6" cy="694" r="40.4"/>
<path d="M-257.6,703.5h-327.9c-5.8,0-10.6-4.7-10.6-10.6c0-5.8,4.7-10.6,10.6-10.6h327.9c5.8,0,10.6,4.7,10.6,10.6
	C-247,698.8-251.7,703.5-257.6,703.5z"/>
<path d="M-257.6,550.5h-327.9c-5.8,0-10.6-4.7-10.6-10.6c0-5.8,4.7-10.6,10.6-10.6h327.9c5.8,0,10.6,4.7,10.6,10.6
	C-247,545.8-251.7,550.5-257.6,550.5z"/>
<path d="M-257.6,397.6h-327.9c-5.8,0-10.6-4.7-10.6-10.6s4.7-10.6,10.6-10.6h327.9c5.8,0,10.6,4.7,10.6,10.6
	S-251.7,397.6-257.6,397.6z"/>
</svg>
