<?xml version="1.0" encoding="utf-8"?>
<!-- Generator: Adobe Illustrator 18.1.1, SVG Export Plug-In . SVG Version: 6.00 Build 0)  -->
<svg version="1.1" id="Capa_1" xmlns="http://www.w3.org/2000/svg" xmlns:xlink="http://www.w3.org/1999/xlink" x="0px" y="0px"
	 viewBox="744.2 563.8 16.1 16.1" enable-background="new 744.2 563.8 16.1 16.1" xml:space="preserve">
<g>
	<rect x="744.9" y="564.5" fill="#FFFFFF" width="14.7" height="14.7"/>
	<path fill="#C1D2E5" d="M744.7,579c0,0,4.7-5.5,6.4-4.7c1.7,0.8,3.1,0.8,3.7,0s2.9-3.6,3.9-3.6s1.1,0,1.1,0v8.3l-15,0.1V579z"/>
	<path fill="#838383" d="M759.2,563.9h-14h-1v1v14v1v0h16v0v-1v-14v-1H759.2z M759.2,578.9h-14v-14h14V578.9z"/>
	<path fill="#EDC87E" d="M748.2,570.8L748.2,570.8c-1.1,0-2-0.9-2-1.9v0c0-1.1,0.9-1.9,1.9-1.9h0c1.1,0,1.9,0.9,1.9,1.9v0
		C750.1,570,749.2,570.8,748.2,570.8z"/>
</g>
</svg>
