<?xml version="1.0"?>
<svg xmlns="http://www.w3.org/2000/svg" height="512px" viewBox="0 0 512 512" width="512px"><g><path d="m452 0h-392v60h-60v115.410156l241 90v34.589844h-90v30h31.507812c3.722657 18.265625 14.105469 34.136719 28.492188 44.960938v137.039062h90v-137.039062c14.386719-10.824219 24.769531-26.695313 28.492188-44.960938h31.507812v-30h-90v-34.589844l241-90v-115.410156h-60zm-181 482h-30v-93.507812c4.847656.988281 9.863281 1.507812 15 1.507812s10.152344-.519531 15-1.507812zm-15-122c-19.554688 0-36.226562-12.550781-42.421875-30.011719h84.839844c-6.191407 17.460938-22.863281 30.011719-42.417969 30.011719zm-166-330h332v90h-332zm392 60v64.589844l-226 84.398437-226-84.398437v-64.589844h30v60h392v-60zm0 0" data-original="#000000" class="active-path" data-old_color="#4f72b8" fill="#4f72b8"/></g> </svg>
