<?xml version="1.0" encoding="utf-8"?>
<!-- Generator: Adobe Illustrator 18.1.1, SVG Export Plug-In . SVG Version: 6.00 Build 0)  -->
<svg version="1.1" id="Capa_1" xmlns="http://www.w3.org/2000/svg" xmlns:xlink="http://www.w3.org/1999/xlink" x="0px" y="0px"
	 viewBox="0 -3 566 566" enable-background="new 0 -3 566 566" xml:space="preserve">
<g>
	<rect x="222.6" y="12" fill="#FFFFFF" width="329.7" height="329.7"/>
	<path fill="#C1D2E5" d="M218.1,337.2c0,0,105.4-123.4,143.5-105.4s69.5,17.9,83,0s65-80.7,87.5-80.7c22.4,0,24.7,0,24.7,0v186.1
		l-336.4,2.2v-2.2H218.1z"/>
	<path fill="#838383" d="M543.3-1.5h-314h-22.4V21v314v22.4l0,0h358.8l0,0v-22.4V21V-1.5H543.3z M543.3,334.9h-314V21h314V334.9z"/>
	<path fill="#EDC87E" d="M296.6,153.3L296.6,153.3c-24.7,0-44.9-20.2-44.9-42.6l0,0c0-24.7,20.2-42.6,42.6-42.6l0,0
		C319,68,337,88.2,337,110.7l0,0C339.2,135.3,319,153.3,296.6,153.3z"/>
</g>
<rect x="0.7" y="529.6" width="565" height="33.4"/>
<rect x="0" y="-1.5" width="141.5" height="33.4"/>
<rect x="0.7" y="423.4" width="565" height="33.4"/>
<rect x="0" y="317.2" width="141.5" height="33.4"/>
<rect x="0" y="210.9" width="141.5" height="33.4"/>
<rect x="0" y="104.7" width="141.5" height="33.4"/>
</svg>
