<?xml version="1.0" encoding="utf-8"?>
<!-- Generator: Adobe Illustrator 18.1.1, SVG Export Plug-In . SVG Version: 6.00 Build 0)  -->
<svg version="1.1" id="Capa_1" xmlns="http://www.w3.org/2000/svg" xmlns:xlink="http://www.w3.org/1999/xlink" x="0px" y="0px"
	 viewBox="-58 -101 1250 1250" enable-background="new -58 -101 1250 1250" xml:space="preserve">
<polygon fill="#FFFF00" points="1192,884 -59,884 -59,172 1191,172 "/>
<g>
	<path d="M236.2,818.8c-4.7-13.3-7.7-33-9-59.1c-16.4,21.4-37.4,37.9-62.8,49.5s-52.4,17.4-80.8,17.4c-40.7,0-73.6-11.3-98.8-34
		c-25.2-22.7-37.7-51.4-37.7-86c0-41.2,17.1-73.8,51.4-97.8c34.3-24,82.1-36,143.4-36h84.9v-48.1c0-30.2-9.3-54-28-71.4
		c-18.6-17.3-45.8-26-81.6-26c-32.6,0-59.6,8.3-81,25C14.9,469,4.2,489.1,4.2,512.5l-46.9-0.4c0-33.6,15.6-62.8,46.9-87.4
		c31.3-24.6,69.8-37,115.4-37c47.2,0,84.4,11.8,111.7,35.4c27.2,23.6,41.3,56.5,42,98.8v200.3c0,40.9,4.3,71.6,12.9,91.9v4.7H236.2z
		 M89.1,785.2c31.3,0,59.3-7.6,83.9-22.7c24.6-15.1,42.6-35.3,53.8-60.6v-93.1h-83.7c-46.7,0.5-83.2,9.1-109.5,25.6
		C7.2,650.9-5.9,673.7-5.9,702.6c0,23.7,8.8,43.4,26.4,59.1S61,785.2,89.1,785.2z"/>
	<path d="M568.6,423.8c53.7,0,97.3,17.5,130.6,52.6c33.4,35.1,50.1,81.6,50.1,139.4V626c0,38.3-7.6,72.8-22.9,103.5
		c-15.3,30.6-37.2,54.5-65.7,71.6c-28.6,17.1-61.3,25.6-98.4,25.6c-55.8,0-101-18.6-135.5-55.7c-34.6-37.2-51.8-86.8-51.8-148.8
		v-37.5c0-87.6,16.7-157.6,50.1-210c33.4-52.4,80.8-83.7,142.4-93.9c38.9-6.3,66.2-14.7,81.9-25.4c15.8-10.7,23.7-25.3,23.7-43.8
		h40.3c0,21.9-4.6,40-13.7,54.4c-9.1,14.3-22.8,25.9-41.1,34.6c-18.3,8.7-46.2,16.1-83.7,22.1c-43,6.8-77.6,25.1-103.8,55
		c-26.2,29.9-43.2,69.8-51,119.9c16.7-21.9,37.6-39.6,62.8-53.2C507.9,430.5,536.6,423.8,568.6,423.8z M422,616.2v9.8
		c0,47.7,12.9,86.5,38.7,116.4c25.8,29.9,59.7,44.8,101.7,44.8c42.2,0,76.1-15.1,101.7-45.2c25.6-30.1,38.3-69.7,38.3-118.7v-10.2
		c0-44.1-13-80-38.9-108c-25.9-27.9-59.9-41.9-101.9-41.9c-42,0-75.8,14.1-101.3,42.4C434.7,534,422,570.8,422,616.2z"/>
	<path d="M844,818.8V395.6h155.3c53.7,0,94.9,9.6,123.6,28.7c28.7,19.2,43,47.3,43,84.3c0,21.1-6.4,40-19.2,56.5
		c-12.8,16.6-31.4,28.6-55.9,36.2c27.6,5.2,49.9,17.1,66.7,35.6c16.8,18.5,25.2,40,25.2,64.5c0,37.3-13.8,66.2-41.3,86.6
		c-27.5,20.5-66.4,30.7-116.8,30.7H844z M890.5,584.9h118.5c73.5-1,110.3-26.1,110.3-75.1c0-25.8-10.1-44.7-30.3-56.5
		c-20.2-11.9-50.1-17.8-89.8-17.8H890.5V584.9z M890.5,624v155.7h135.7c35.2,0,62.3-6.8,81.4-20.3c19-13.6,28.6-33.1,28.6-58.7
		c0-23.5-9.5-42.1-28.6-55.9c-19-13.8-46.2-20.7-81.4-20.7H890.5z"/>
</g>
</svg>
