<?xml version="1.0" encoding="utf-8"?>
<!-- Generator: Adobe Illustrator 18.1.1, SVG Export Plug-In . SVG Version: 6.00 Build 0)  -->
<svg version="1.0" id="Слой_1" xmlns="http://www.w3.org/2000/svg" xmlns:xlink="http://www.w3.org/1999/xlink" x="0px" y="0px"
	 viewBox="5.4 0 22 400" enable-background="new 5.4 0 22 400" xml:space="preserve">
<g>
	<path d="M16.4,13.5c-0.1,0-0.3-0.1-0.4-0.2L12.6,10c-0.2-0.2-0.2-0.6,0-0.8c0.2-0.2,0.6-0.2,0.8,0l3,3l3-3c0.2-0.2,0.6-0.2,0.8,0
		c0.2,0.2,0.2,0.6,0,0.8l-3.4,3.4C16.6,13.5,16.5,13.5,16.4,13.5z"/>
</g>
<g>
	<path d="M16.4,36.3c-0.2,0-0.4-0.1-0.6-0.2L10.7,31c-0.3-0.3-0.3-0.8,0-1.2c0.3-0.3,0.8-0.3,1.2,0l4.5,4.5l4.5-4.5
		c0.3-0.3,0.8-0.3,1.2,0c0.3,0.3,0.3,0.8,0,1.2l-5.1,5.1C16.8,36.2,16.6,36.3,16.4,36.3z"/>
</g>
</svg>
