<?xml version="1.0" encoding="utf-8"?>
<!-- Generator: Adobe Illustrator 18.1.1, SVG Export Plug-In . SVG Version: 6.00 Build 0)  -->
<svg version="1.1" id="Capa_1" xmlns="http://www.w3.org/2000/svg" xmlns:xlink="http://www.w3.org/1999/xlink" x="0px" y="0px"
	 viewBox="0 0 1081.8 1080" enable-background="new 0 0 1081.8 1080" xml:space="preserve">
<rect y="863.9" fill="#838383" width="1081.8" height="50.1"/>
<g>
	<path fill="#4F72B8" d="M485.4,675.6H445V448.3H174.2v227.3h-40V201.5h40v212.9H445V201.5h40.4V675.6z"/>
	<path fill="#4F72B8" d="M783,477.9H645.3v197.6h-40.4V201.5h154c50.6,0,90.1,12.3,118.5,36.8c28.4,24.5,42.7,58.8,42.7,102.8
		c0,30.4-8.9,57.1-26.7,80.3c-17.8,23.2-41.7,39.2-71.6,48.1l118.5,201.9v4.2h-42.7L783,477.9z M645.3,444.1H768
		c33.6,0,60.7-9.6,81.1-28.7c20.4-19.1,30.6-43.9,30.6-74.4c0-33.5-10.6-59.5-31.9-77.9c-21.3-18.5-51.1-27.7-89.5-27.7h-113V444.1z
		"/>
</g>
</svg>
