<?xml version="1.0" encoding="utf-8"?>
<!-- Generator: Adobe Illustrator 18.1.1, SVG Export Plug-In . SVG Version: 6.00 Build 0)  -->
<svg version="1.1" id="Capa_1" xmlns="http://www.w3.org/2000/svg" xmlns:xlink="http://www.w3.org/1999/xlink" x="0px" y="0px"
	 viewBox="-704 286 510 510" enable-background="new -704 286 510 510" xml:space="preserve">
<g>
	<g id="link">
		<path fill="#4A7DB1" d="M-551,566.5h204v-51h-204V566.5z M-655.5,541c0-58.6,45.9-104.5,104.5-104.5h76.5V388H-551
			c-84.2,0-153,68.9-153,153s68.8,153,153,153h76.5v-48.5H-551C-609.7,645.5-655.5,599.7-655.5,541z M-347,388h-76.5v48.5h76.5
			c58.6,0,104.5,45.9,104.5,104.5S-288.3,645.5-347,645.5h-76.5V694h76.5c84.1,0,153-68.8,153-153S-262.9,388-347,388z"/>
	</g>
</g>
</svg>
