<?xml version="1.0" encoding="utf-8"?>
<!-- Generator: Adobe Illustrator 18.1.1, SVG Export Plug-In . SVG Version: 6.00 Build 0)  -->
<svg version="1.1" id="Layer_1" xmlns="http://www.w3.org/2000/svg" xmlns:xlink="http://www.w3.org/1999/xlink" x="0px" y="0px"
	 viewBox="-719 301 480 480" enable-background="new -719 301 480 480" xml:space="preserve">
<path d="M-257.6,703.5h-327.9c-5.8,0-10.6-4.7-10.6-10.6c0-5.8,4.7-10.6,10.6-10.6h327.9c5.8,0,10.6,4.7,10.6,10.6
	C-247,698.8-251.7,703.5-257.6,703.5z"/>
<path d="M-257.6,550.5h-327.9c-5.8,0-10.6-4.7-10.6-10.6c0-5.8,4.7-10.6,10.6-10.6h327.9c5.8,0,10.6,4.7,10.6,10.6
	C-247,545.8-251.7,550.5-257.6,550.5z"/>
<path d="M-257.6,397.6h-327.9c-5.8,0-10.6-4.7-10.6-10.6s4.7-10.6,10.6-10.6h327.9c5.8,0,10.6,4.7,10.6,10.6
	S-251.7,397.6-257.6,397.6z"/>
<g>
	<path fill="#4A7DB1" d="M-655.7,440h-9.9V331.8l-32.7,12.1v-9.2l40.9-15.2h1.7V440z"/>
</g>
<g>
	<path fill="#4A7DB1" d="M-626.4,589.4h-75.3v-7.6l41.2-46.7c6.8-7.9,11.6-14.4,14.2-19.5s4-10.1,4-14.9c0-7.6-2.2-13.6-6.7-18
		c-4.5-4.4-10.6-6.6-18.4-6.6c-8.1,0-14.6,2.6-19.6,7.8c-5,5.2-7.5,11.9-7.5,20.1h-9.8c0-6.8,1.5-12.9,4.6-18.5
		c3.1-5.6,7.4-9.9,13-13.1c5.6-3.2,12.1-4.7,19.3-4.7c11,0,19.6,2.9,25.8,8.7c6.2,5.8,9.3,13.6,9.3,23.6c0,5.6-1.7,11.7-5.2,18.4
		c-3.5,6.7-9.6,15-18.4,24.9l-33.5,37.9h63.1V589.4z"/>
</g>
<g>
	<path fill="#4A7DB1" d="M-679.7,680.6h10.2c5.7,0,10.6-1,14.9-3c4.2-2,7.5-4.8,9.7-8.3c2.2-3.5,3.3-7.5,3.3-12.1
		c0-7.7-2.2-13.7-6.5-18.1c-4.3-4.3-10.6-6.5-18.7-6.5c-7.7,0-14,2.3-18.9,6.8c-4.9,4.5-7.4,10.5-7.4,17.9h-9.9
		c0-6.2,1.6-11.9,4.7-17c3.1-5.1,7.5-9.1,13-11.9c5.6-2.8,11.7-4.2,18.5-4.2c10.9,0,19.5,3,25.7,8.9s9.4,14.1,9.4,24.4
		c0,5.8-1.8,11.1-5.5,16c-3.7,4.9-8.7,8.5-15.1,10.9c7.5,2.1,13.1,5.7,17,10.8c3.9,5.1,5.8,11.2,5.8,18.2c0,10.3-3.4,18.6-10.1,24.8
		c-6.7,6.3-15.7,9.4-26.9,9.4c-7.2,0-13.7-1.4-19.7-4.3c-6-2.9-10.6-6.9-13.9-12c-3.3-5.1-4.9-11.1-4.9-17.9h9.9
		c0,7.6,2.7,13.9,8,18.7c5.3,4.8,12.2,7.2,20.5,7.2c8.5,0,15.2-2.2,19.9-6.6c4.8-4.4,7.1-10.7,7.1-19c0-8-2.6-14.2-7.7-18.4
		c-5.1-4.2-12.7-6.4-22.7-6.4h-9.9V680.6z"/>
</g>
</svg>
